<?xml version="1.0" standalone="no"?>
<!DOCTYPE svg PUBLIC "-//W3C//DTD SVG 20010904//EN"
 "http://www.w3.org/TR/2001/REC-SVG-20010904/DTD/svg10.dtd">
<svg version="1.0" xmlns="http://www.w3.org/2000/svg"
 width="260.000000pt" height="260.000000pt" viewBox="0 0 260.000000 260.000000"
 preserveAspectRatio="xMidYMid meet">

<g transform="translate(0.000000,260.000000) scale(0.100000,-0.100000)"
fill="#000000" stroke="none">
<path d="M684 2325 c-195 -42 -345 -209 -390 -434 -21 -108 -15 -208 21 -321
94 -293 361 -659 835 -1142 l189 -193 121 120 c482 475 790 888 896 1200 36
107 44 263 19 368 -50 207 -203 369 -386 408 -110 24 -294 -17 -405 -89 -66
-43 -159 -132 -206 -199 -17 -23 -35 -43 -39 -43 -4 0 -24 22 -44 49 -60 83
-180 187 -258 226 -70 34 -197 66 -260 64 -18 0 -59 -7 -93 -14z m1307 -101
c72 -21 149 -74 198 -138 73 -94 101 -186 101 -335 0 -125 -12 -169 -61 -224
-33 -38 -37 -39 -32 -17 4 24 2 26 -46 28 -27 1 -52 -2 -55 -6 -4 -6 -44 -7
-111 0 -11 1 -32 -2 -48 -6 -17 -5 -32 -4 -41 4 -10 7 -52 11 -118 10 -57 0
-181 1 -275 3 -95 1 -173 0 -173 -4 0 -3 -28 -4 -62 -1 -35 2 -130 4 -211 3
-114 0 -146 2 -141 12 6 9 4 9 -8 -1 -11 -9 -56 -12 -159 -11 -79 1 -148 4
-154 7 -17 10 -35 11 -35 1 0 -5 -9 -9 -20 -9 -11 0 -20 5 -20 10 0 13 -37 13
-45 -1 -4 -6 -13 -8 -21 -5 -12 5 -12 1 -4 -17 10 -19 9 -19 -9 3 -41 50 -55
93 -59 185 -7 171 45 321 144 415 84 80 127 95 264 95 111 0 118 -1 184 -34
78 -38 163 -115 239 -216 63 -84 112 -114 154 -93 15 7 62 57 106 110 43 54
101 116 130 138 124 93 269 128 388 94z"/>
</g>
</svg>
